<svg id="instagram" xmlns="http://www.w3.org/2000/svg" xmlns:xlink="http://www.w3.org/1999/xlink" width="24.427" height="24.427" viewBox="0 0 24.427 24.427">
  <defs>
    <linearGradient id="linear-gradient" y1="-41.23" x2="1" y2="-41.23" gradientUnits="objectBoundingBox">
      <stop offset="0" stop-color="#00f38d"/>
      <stop offset="1" stop-color="#009eff"/>
    </linearGradient>
  </defs>
  <path id="Path_7" data-name="Path 7" d="M24.427,12.214A12.214,12.214,0,1,1,12.214,0,12.214,12.214,0,0,1,24.427,12.214Zm0,0" fill="url(#linear-gradient)"/>
  <g id="Group_4" data-name="Group 4" transform="translate(3.769 3.769)">
    <path id="Path_8" data-name="Path 8" d="M90.958,95.889H83.931A4.937,4.937,0,0,1,79,90.958V83.931A4.937,4.937,0,0,1,83.931,79h7.026a4.937,4.937,0,0,1,4.931,4.931v7.026A4.937,4.937,0,0,1,90.958,95.889ZM83.931,80.431a3.5,3.5,0,0,0-3.5,3.5v7.026a3.5,3.5,0,0,0,3.5,3.5h7.026a3.5,3.5,0,0,0,3.5-3.5V83.931a3.5,3.5,0,0,0-3.5-3.5Zm0,0" transform="translate(-79 -79)" fill="#fff"/>
    <path id="Path_9" data-name="Path 9" d="M164.58,169.16a4.58,4.58,0,1,1,4.58-4.58A4.585,4.585,0,0,1,164.58,169.16Zm0-7.729a3.149,3.149,0,1,0,3.149,3.149A3.152,3.152,0,0,0,164.58,161.431Zm0,0" transform="translate(-156.135 -156.135)" fill="#fff"/>
    <path id="Path_10" data-name="Path 10" d="M339.681,146.823a.655.655,0,1,1-.655-.655A.655.655,0,0,1,339.681,146.823Zm0,0" transform="translate(-325.997 -142.963)" fill="#fff"/>
  </g>
</svg>
