<svg id="line" xmlns="http://www.w3.org/2000/svg" width="24.427" height="24.427" viewBox="0 0 24.427 24.427">
  <rect id="Rectangle_7" data-name="Rectangle 7" width="24.427" height="24.427" rx="12.214" fill="#00c200"/>
  <g id="Group_5" data-name="Group 5" transform="translate(3.271 3.755)">
    <path id="Path_12" data-name="Path 12" d="M78.834,78.062a4.479,4.479,0,0,0,.071-.541,6.8,6.8,0,0,0-.008-.695c-.217-3.774-4.132-6.781-8.931-6.781-4.938,0-8.94,3.184-8.94,7.111,0,3.61,3.382,6.591,7.763,7.05a.486.486,0,0,1,.431.537l-.187,1.679a.487.487,0,0,0,.7.492A21.106,21.106,0,0,0,76.966,81.7c.241-.29,1.025-1.388,1.185-1.677A5.986,5.986,0,0,0,78.834,78.062Z" transform="translate(-61.025 -70.046)" fill="#fff"/>
    <path id="Path_13" data-name="Path 13" d="M119.954,168.627v-3a.457.457,0,0,0-.457-.457h0a.457.457,0,0,0-.457.457v3.453a.457.457,0,0,0,.457.457h1.829a.457.457,0,0,0,.457-.457h0a.457.457,0,0,0-.457-.457Z" transform="translate(-115.929 -160.075)" fill="#00c500"/>
    <path id="Path_14" data-name="Path 14" d="M178.891,169.541h-.2a.357.357,0,0,1-.357-.357v-3.653a.357.357,0,0,1,.357-.357h.2a.357.357,0,0,1,.357.357v3.653A.357.357,0,0,1,178.891,169.541Z" transform="translate(-172.046 -160.075)" fill="#00c500"/>
    <path id="Path_15" data-name="Path 15" d="M210.847,165.631v2.109s-1.826-2.382-1.854-2.413a.455.455,0,0,0-.359-.153.47.47,0,0,0-.44.476v3.434a.457.457,0,0,0,.457.457h0a.457.457,0,0,0,.457-.457v-2.1s1.854,2.4,1.881,2.429a.455.455,0,0,0,.309.125.474.474,0,0,0,.462-.476v-3.434a.457.457,0,0,0-.457-.457h0A.457.457,0,0,0,210.847,165.631Z" transform="translate(-200.307 -160.075)" fill="#00c500"/>
    <path id="Path_16" data-name="Path 16" d="M290.282,165.631h0a.457.457,0,0,0-.457-.457H288a.457.457,0,0,0-.457.457v3.453a.457.457,0,0,0,.457.457h1.829a.457.457,0,0,0,.457-.457h0a.457.457,0,0,0-.457-.457h-1.372v-.812h1.372a.457.457,0,0,0,.457-.457h0a.457.457,0,0,0-.457-.457h-1.372v-.812h1.372A.457.457,0,0,0,290.282,165.631Z" transform="translate(-275.397 -160.075)" fill="#00c500"/>
  </g>
</svg>
